<svg width="147" height="15" viewBox="0 0 147 15" fill="none" xmlns="http://www.w3.org/2000/svg">
<path d="M5.86328 1.29932L1.1875 14H0L5.10254 0.492188H5.92822L5.86328 1.29932ZM10.1123 14L5.42725 1.29932L5.3623 0.492188H6.18799L11.2998 14H10.1123ZM9.27734 9.23145V10.2148H2.10596V9.23145H9.27734Z" fill="black"/>
<path d="M23.0152 13.0259V14H16.0108V13.0259H23.0152ZM16.3448 0.492188V14H15.2037V0.492188H16.3448Z" fill="black"/>
<path d="M27.4758 0.492188H28.6262L33.6174 12.3857L38.6179 0.492188H39.759L34.0534 14H33.1813L27.4758 0.492188ZM27.1232 0.492188H28.1345L28.2551 8.09961V14H27.1232V0.492188ZM39.1188 0.492188H40.1301V14H38.989V8.09961L39.1188 0.492188Z" fill="black"/>
<path d="M50.0643 1.29932L45.3885 14H44.201L49.3035 0.492188H50.1292L50.0643 1.29932ZM54.3133 14L49.6282 1.29932L49.5633 0.492188H50.389L55.5008 14H54.3133ZM53.4783 9.23145V10.2148H46.3069V9.23145H53.4783Z" fill="black"/>
<path d="M62.8095 12.3208L67.0678 0.492188H68.3109L63.2826 14H62.3642L62.8095 12.3208ZM58.412 0.492188L62.6518 12.3208L63.1156 14H62.1879L57.1688 0.492188H58.412Z" fill="black"/>
<path d="M80.6108 13.0259V14H73.0127V13.0259H80.6108ZM73.356 0.492188V14H72.2148V0.492188H73.356ZM79.6646 6.55029V7.52441H73.0127V6.55029H79.6646ZM80.5645 0.492188V1.47559H73.0127V0.492188H80.5645Z" fill="black"/>
<path d="M94.9889 0.492188V14H93.8385L86.0733 2.45898V14H84.9322V0.492188H86.0733L93.857 12.0332V0.492188H94.9889Z" fill="black"/>
<path d="M104.032 14H100.971L100.989 13.0259H104.032C105.003 13.0259 105.838 12.8094 106.537 12.3765C107.242 11.9373 107.787 11.3312 108.17 10.5581C108.554 9.78499 108.745 8.88818 108.745 7.86768V6.60596C108.745 5.82666 108.634 5.12158 108.411 4.49072C108.195 3.85986 107.883 3.32178 107.474 2.87646C107.066 2.42497 106.578 2.07861 106.008 1.8374C105.446 1.59619 104.815 1.47559 104.116 1.47559H100.915V0.492188H104.116C104.957 0.492188 105.727 0.637533 106.426 0.928223C107.131 1.21273 107.74 1.62712 108.254 2.17139C108.773 2.70947 109.172 3.35579 109.45 4.11035C109.735 4.86491 109.877 5.70605 109.877 6.63379V7.86768C109.877 8.79541 109.735 9.63656 109.45 10.3911C109.172 11.1457 108.773 11.792 108.254 12.3301C107.734 12.8682 107.119 13.2826 106.407 13.5732C105.696 13.8577 104.904 14 104.032 14ZM101.481 0.492188V14H100.34V0.492188H101.481Z" fill="black"/>
<path d="M116.082 0.492188V14H114.941V0.492188H116.082Z" fill="black"/>
<path d="M131.712 0.492188V14H130.562L122.797 2.45898V14H121.656V0.492188H122.797L130.58 12.0332V0.492188H131.712Z" fill="black"/>
<path d="M146.805 7.58008V12.3857C146.65 12.6146 146.384 12.8682 146.007 13.1465C145.63 13.4248 145.122 13.6691 144.485 13.8794C143.848 14.0835 143.057 14.1855 142.11 14.1855C141.319 14.1855 140.592 14.0433 139.93 13.7588C139.268 13.4743 138.693 13.063 138.205 12.5249C137.722 11.9806 137.348 11.3281 137.082 10.5674C136.822 9.80664 136.692 8.95312 136.692 8.00684V6.37402C136.692 5.44629 136.813 4.61133 137.054 3.86914C137.295 3.12077 137.645 2.48063 138.103 1.94873C138.56 1.41683 139.111 1.01172 139.754 0.733398C140.403 0.448893 141.13 0.306641 141.934 0.306641C142.936 0.306641 143.78 0.479818 144.467 0.826172C145.153 1.17253 145.688 1.64876 146.072 2.25488C146.461 2.85482 146.703 3.53516 146.795 4.2959H145.654C145.568 3.75781 145.388 3.26302 145.116 2.81152C144.844 2.35384 144.448 1.98584 143.929 1.70752C143.415 1.4292 142.75 1.29004 141.934 1.29004C141.278 1.29004 140.694 1.41064 140.181 1.65186C139.674 1.89307 139.247 2.23633 138.9 2.68164C138.554 3.12695 138.291 3.66195 138.112 4.28662C137.932 4.90511 137.843 5.59473 137.843 6.35547V8.00684C137.843 8.7985 137.942 9.51286 138.14 10.1499C138.344 10.7869 138.634 11.3343 139.012 11.792C139.389 12.2497 139.84 12.6022 140.366 12.8496C140.892 13.0908 141.476 13.2114 142.12 13.2114C142.806 13.2114 143.391 13.1465 143.873 13.0166C144.355 12.8867 144.742 12.7321 145.033 12.5527C145.33 12.3672 145.543 12.194 145.673 12.0332V8.5542H142.045V7.58008H146.805Z" fill="black"/>
</svg>
