<svg width="142" height="76" viewBox="0 0 142 76" fill="none" xmlns="http://www.w3.org/2000/svg">
<path d="M35.7889 5.30213C39.0795 0.195326 45.8869 -1.27704 50.9937 2.01352C56.1005 5.30407 57.5729 12.1115 54.2823 17.2183L20.248 70.0381C16.9575 75.1449 10.1501 76.6173 5.04325 73.3267C-0.0635557 70.0361 -1.53592 63.2287 1.75464 58.1219L35.7889 5.30213Z" fill="#EFBE49"/>
<path d="M107.789 5.3021C111.079 0.195295 117.887 -1.27707 122.994 2.01349C128.1 5.30404 129.573 12.1114 126.282 17.2183L92.248 70.0381C88.9575 75.1449 82.1501 76.6172 77.0433 73.3267C71.9364 70.0361 70.4641 63.2287 73.7546 58.1219L107.789 5.3021Z" fill="#EFBE49"/>
<path d="M37.0588 18.1447C33.5925 13.1556 34.827 6.30102 39.8162 2.83473C44.8054 -0.631572 51.6599 0.602977 55.1262 5.59217L90.9782 57.1954C94.4445 62.1846 93.2099 69.0392 88.2208 72.5055C83.2316 75.9718 76.377 74.7372 72.9107 69.748L37.0588 18.1447Z" fill="#EFBE49"/>
<path d="M111.93 52.5607C111.59 51.9075 111.637 51.1203 112.051 50.5117L122.752 34.802C123.582 33.5836 125.4 33.6512 126.137 34.9279L140.254 59.3785C143.291 64.6397 141.488 71.3672 136.227 74.4048C130.966 77.4424 124.239 75.6397 121.201 70.3785L111.93 52.5607Z" fill="#EFBE49"/>
</svg>
